<svg width="460" height="160" viewBox="0 0 460 160" xmlns="http://www.w3.org/2000/svg">
 <!-- Icon Background --> <rect x="20" y="20" width="110" height="110" rx="28" fill="#2563EB"/> <!-- Document --> <path d="M48 42H82L102 62V102C102 108 97 113 91 113H48C42 113 37 108 37 102V53C37 47 42 42 48 42Z" fill="white"/> <!-- Fold --> <path d="M82 42V62H102" fill="#DBEAFE"/> <!-- Lines --> <path d="M54 72H84" stroke="#2563EB" stroke-width="4" stroke-linecap="round"/> <path d="M54 84H84" stroke="#2563EB" stroke-width="4" stroke-linecap="round"/> <path d="M54 96H74" stroke="#2563EB" stroke-width="4" stroke-linecap="round"/> <!-- Check --> <circle cx="96" cy="98" r="14" fill="#22C55E"/> <path d="M90 98L95 103L103 93" stroke="white" stroke-width="3" fill="none" stroke-linecap="round" stroke-linejoin="round"/> <!-- Brand Name --> <text x="155" y="68" font-family="Poppins, Arial, sans-serif" font-size="34" font-weight="700" fill="#111827"> GC Returns </text> <!-- PRO Badge --> <rect x="157" y="82" width="58" height="26" rx="8" fill="#2563EB"/> <text x="186" y="100" font-family="Poppins, Arial, sans-serif" font-size="15" font-weight="700" text-anchor="middle" fill="white"> PRO </text> </svg>
