<svg xmlns="http://www.w3.org/2000/svg" width="96" height="96" viewBox="0 0 96 96" role="img" aria-label="Neo GST">
  <defs>
    <linearGradient id="neoGstGradient" x1="0" y1="0" x2="1" y2="1">
      <stop offset="0" stop-color="#0f4c81"/>
      <stop offset="1" stop-color="#1fb6ff"/>
    </linearGradient>
    <linearGradient id="neoGstGlow" x1="0" y1="1" x2="1" y2="0">
      <stop offset="0" stop-color="#22c55e"/>
      <stop offset="1" stop-color="#fbbf24"/>
    </linearGradient>
  </defs>
  <rect x="6" y="6" width="84" height="84" rx="20" fill="url(#neoGstGradient)"/>
  <path
    d="M30 63V33h8l12 16V33h8v30h-8L38 47v16h-8z"
    fill="#ffffff"
  />
  <circle cx="68" cy="36" r="9" fill="url(#neoGstGlow)"/>
  <path
    d="M66 32h4v8h-4zM64 36h8v4h-8z"
    fill="#0f172a"
    opacity="0.65"
  />
  <path
    d="M62 71h16c1.7 0 3-1.3 3-3 0-8.8-7.2-16-16-16-6.9 0-12.9 4.4-15.2 10.6"
    fill="none"
    stroke="#ffffff"
    stroke-width="3"
    stroke-linecap="round"
    opacity="0.7"
  />
</svg>
